<mxfile host="Electron" modified="2023-08-23T06:29:31.239Z" agent="Mozilla/5.0 (Windows NT 10.0; Win64; x64) AppleWebKit/537.36 (KHTML, like Gecko) draw.io/21.6.8 Chrome/114.0.5735.289 Electron/25.5.0 Safari/537.36" etag="MkkRg7Dw7B5ZQcDhe7XW" version="21.6.8" type="device">
  <diagram name="ha_ctr_data_path" id="C7DjFHVv-kDU1VvtlVCg">
    <mxGraphModel dx="1036" dy="606" grid="1" gridSize="10" guides="1" tooltips="1" connect="1" arrows="1" fold="1" page="1" pageScale="1" pageWidth="1100" pageHeight="850" math="0" shadow="0">
      <root>
        <mxCell id="1yb4j-lFQ4wOXY7LEsBq-0" />
        <mxCell id="1yb4j-lFQ4wOXY7LEsBq-1" parent="1yb4j-lFQ4wOXY7LEsBq-0" />
        <mxCell id="1yb4j-lFQ4wOXY7LEsBq-4" value="" style="whiteSpace=wrap;html=1;aspect=fixed;strokeWidth=2;strokeColor=#4376bb;" parent="1yb4j-lFQ4wOXY7LEsBq-1" vertex="1">
          <mxGeometry x="355" y="130" width="320" height="320" as="geometry" />
        </mxCell>
        <mxCell id="1yb4j-lFQ4wOXY7LEsBq-5" value="" style="shape=image;verticalLabelPosition=bottom;labelBackgroundColor=default;verticalAlign=top;aspect=fixed;imageAspect=0;image=data:image/png,iVBORw0KGgoAAAANSUhEUgAAAEQAAAA/CAYAAABZ9m6wAAAH/ElEQVR4nO2bfUxV5x3HPwcuL2LhgGKlpV58baYJWBe1MkEly4xas27t2m5S0zaxyxiLcTaOq20KmqHAErWNwbWbjUnRzjbN3Fi1ujhJsWptMRSdy+ZL4c6XKJN7Lwrnvp5nfxzuhXNVuIeey+WP+01OJDfneZ7f8z2/l+f3/H5KQghBHCEkxFqA0YY4IWGIExKGOCFhiBMShjghYYgTEoY4IWEYdYR80OLlgxZfzNaXRstJ9cQ3fso+6qGjSyCpkJeVSP3zaRRNSxxROWJOiN2pYjt0l7/90wdCCj2SCgiJ4qkW6n+ahjVLGhF5YkaIyy3Y/UUvW//Ro5GgakTIKQkgJFwKIVIQEhuXplK2KBk5NbpyxYSQ/W0K25ru0uFQQRDadOnsVGqeeggAW2Mv+1p8OlIyUyVqnh7Dz+ZZoibbiBJy7paPir+7aG73Iqn95lGUl0Ttsgzyc/QbPXcjQEWjwueX/DpzKp5mwbY0maLp5vuXESHE5VGxHXPQ0Nar21heuoWNi9MpnT1m0PH7WrzUHHVj7xK68aXzktj2oxTkwYcbQtQJ2X22m62fu3C61ZCfQEhsLMqgfH46ckpkztLlFtQ3e6g56tGRkpkqUbYoGduyJFPkjRohzVcVyo500uEKDNgArJyWRu33x2GVh6fudoeK7S8Kn5wP6LUtM4H60hSKpn+7o5XphNjv+Kn4rJPGyz1IA6KHNT2J3y/LpniSOWHixGU/ZX9SsHfRT4wqUTw9kfrSZKzjhhemTSPE5VWp/9pB9Zn/6VU6KZFNC8bxyzmyGcvcg93NXrZ96sGl9JOCkNi4PImyJRbD/sUUQux3fSz/awcd3f4+gdCc3ndk6hZNQE6ObobgcoPtoJv9Z/w6UsoWW6h51phvMYWQrS232NrSrxnFOWnUFU0kPzvF8Fx7PzyNJEm89NyThseeu65i+7OHE5dU5BSJc5VphjXEnBOOBEgar6WPy7xT8qjhKZpOXeSV1xpov9oFwM49x9lR+SxLCmdEPEf+owl8Uj6G/V/6QTCscGyKLgtJaIRIgrwMYyra/t/b/HjNHyh54e0QGQCtF65R8sLbvPJaA06XYmjOVfMsrJo/vG9tmnGLhD5SiNwCq7YfYs7yWg4ebQv9JqenIqf3R6K9H33BlIWVvLWnySxRB4U5hPRph0bK0K83nbrIlO9VsnnnYZzd/V//pZ/Mp/3kFlo/tfH00vzQ785uhXWbP2bOshqaTl00ReQHwTz3HyRFGlxD1lV9fI95zJ6Zy/EDa9m7fTWZ8hgmTxrPwT/+nOMH1jJ7Zm7ovaAZVW0/NOgaqgBfQHtUgyHDJA1B51gHw1vv9au+nJ7KjjefofWI7b7Oc0nhDFqP2Njx5jM6M9q88/Cgayg+cCoCpyJQDF6+mZRHB/2HFBEpQbSf3EJmBKFg3ZoSXn5uAVn5v4loXo9fIwMgMQHGJkd+ajU97BpBJGQM513FJ+hSVBASaQbIANMIEZAgQCUipxptKH76NEQw3he058hg3tWTJPo8UuzvrDWT0b6Ox29MHvM0JGgyo0FDfAKnW4AQKD5jccNcDRn4bwzhCQjtQkqAJ2BsbEydarSgaYhGiOIzJpdpJ1WRgN50IoCRHMXIu26/wKEEcLhV3AZ9iKknVWFwtkhzlKrth5iysDLied1+zYc4Y0bIgGx3KKdauW556O+hcpQH5TwD57gfFL/A4dE0RPGrhrZiei4zlMlUrV/B8QNrycvNCv0Wnuo/6EogmPNUrV8x6BrugIrTrT0ev7FtmB92I8CSwhm0n9pC1fZD7NxzHNcdN6Cl+gePaFcBAzVCTk+l6tcrWLemJKL53X6BwxtAUqUYaUgwyhgkpmr9ivum+ve7EoiUDAB3X9h1eFQ8gZg41b6juySwKx5DIwem+gPNKPxKwAiuOHwoARUloOI1mP+bew5JgPftN+nocVNXMJUCOS3iKYJmtPfD0wC8/PwCw2Kc6/RSccxBc4cHpD7vbvB8ZE4ZQvGw9GQr9l6vrgyw2vowdQVTkJOi2/Ti8qjYmm7TcL4nVCFElbBmWDi8aqKhKqF5hSp/gF1XrlL9b7uOlEyLhddnWimfnmPGMvegvtXJttMOLbsdUCDbWChTPleOuHYchPmlTMXDhvOXabzRpStu541J5d250yiekGHKOs3XevnFsZt0uLTiVLBsunLqWGpLxmPNGJ43iF6x+7aLV8/+B3uPV/flfvjIOOqemIw1LXlY89rv+Kg4eZPGyz26ZhvrQ0m884OJFD/27Xojot4OsevKdar/ZcflVXXEvDHrMcpn5ETsX1xelfrzt6n+qlNX3JaTEtg0P5vy2VlDTxIBRqZhxh9gQ9sVGjo6daTkpaXyxqxcSidnDzp+3yUH1WdvYu/WdxKVPp5J3cKJptaOR7Slqs3Vw4a2b2juvKPb2OLsdGrn5FGQqQ/TbQ6FijPX+ezG3QHdiRLFOWOpK3yE/PHmd+DFpOmuwX6L3164qvMvkgqrJ0+g9rtWACq+usr7l7p0zTbWscm8/kQOL84wxzzuh9i1ZfoC7Lp0neoL13SkZFosICScQZ/TF6k2FeTwq1kTkJOje6aJfeNur4cNX7fTeM2pa9gNPitzM/nd3ElYxw4vKhlFzAkJormzm1e/vIy9R+tNtaal8O6TUyl+OH1E5Rg1hAQRjEQvDhF5ooVRR0isMer+e0isESckDHFCwhAnJAxxQsIQJyQMcULC8H+lo/pPCwq+CwAAAABJRU5ErkJggg==;" parent="1yb4j-lFQ4wOXY7LEsBq-1" vertex="1">
          <mxGeometry x="357" y="132" width="43.17" height="40" as="geometry" />
        </mxCell>
        <mxCell id="1yb4j-lFQ4wOXY7LEsBq-10" style="rounded=0;orthogonalLoop=1;jettySize=auto;html=1;exitX=1;exitY=0.5;exitDx=0;exitDy=0;entryX=0;entryY=0.5;entryDx=0;entryDy=0;strokeWidth=2;" parent="1yb4j-lFQ4wOXY7LEsBq-1" source="1yb4j-lFQ4wOXY7LEsBq-23" target="1yb4j-lFQ4wOXY7LEsBq-19" edge="1">
          <mxGeometry relative="1" as="geometry">
            <mxPoint x="870" y="611.15" as="sourcePoint" />
            <mxPoint x="1015.6839060573652" y="462.8594616332972" as="targetPoint" />
          </mxGeometry>
        </mxCell>
        <mxCell id="1yb4j-lFQ4wOXY7LEsBq-19" value="" style="image;aspect=fixed;perimeter=ellipsePerimeter;html=1;align=center;shadow=0;dashed=0;fontColor=#4277BB;labelBackgroundColor=default;fontSize=12;spacingTop=3;image=img/lib/ibm/data/data_services.svg;" parent="1yb4j-lFQ4wOXY7LEsBq-1" vertex="1">
          <mxGeometry x="750" y="300" width="90" height="90" as="geometry" />
        </mxCell>
        <mxCell id="1yb4j-lFQ4wOXY7LEsBq-28" value="" style="shape=image;verticalLabelPosition=bottom;labelBackgroundColor=default;verticalAlign=top;aspect=fixed;imageAspect=0;image=data:image/png,iVBORw0KGgoAAAANSUhEUgAAAKMAAACJCAYAAABAW4jQAAAAAXNSR0IArs4c6QAAAARnQU1BAACxjwv8YQUAAAAJcEhZcwAAEnQAABJ0Ad5mH3gAAB5BSURBVHhe7d0JuG3l/AfwVRkyRGZXhgylCN0oQyky3K40IVNJGgwRD+qJIn/pFk955OKpa6irosg8ZoibiFBCuYYuSSFzKSS1/u/nvfvdrbvv3mevs/c+56yz9/t9nvWcs9e0373Wd/3m37vWKQOKjIwGYN3W34yMOUcmY0ZjkMmY0RhkMmY0BpmMGY1BJmNGY5BDO2OCm2++OS5u5zrrrFOsu+66cYGbbropbgPr1ltvvfi/fW1LFLA+HWN/28D5bPO385jq+TrHkI5J29L50tjStoQsGccEK1asKBYvXlxsvfXWxV577VWcc845cf1f/vKX4phjjikWLVpUPOYxjyne9KY3xfVw/vnnFwcffHBcv9NOOxWf/OQn4/5w9tlnx/WWV7/61XFf+NOf/lS85jWvKZ785CcXO+64Y3H88cfH9fCFL3yh2G+//eIxxvLtb3+7uPbaa+PysY99rH2+t7zlLcWPf/zj1lG3IJNxTOCGr1y5svjJT35S/PKXvyyuueaauP7GG28srrrqquJnP/tZ3Pa73/0urod//vOfxW9+85u43va//e1vxf/+97+47R//+Edcb7HPddddF9c73+WXX15ceumlcfn9738f14PjV61aFY/5+c9/Hs9PGlqQPJ3PGK6//vrWUbcgk3FMsP766xf3vve9i4022qi45z3vWdzudreL66nKO9/5zu1td7nLXeJ6uO1tb1vc7W53i+ttv/3tb99Wuf633mIf+4LtPi9YsCAuzp3gmLvf/e7xmHvd617xmKSO73jHO7bPZwzpfFWs938Brf8z5jFImhtuuKHYeOONi0c+8pHFwoULI1lIOlJzgw02KB74wAdGNbnlllvGY/7973/H7cj18Ic/PKp4ZEEUktD2zTbbLJ5riy22KO5xj3vE/UlNpNt0002LrbbaKh4LJCHiIaL9H/e4x8X9EPhf//pXlJDO53se+tCHrvFgQHZgMhqDrKYzGoMsGccEf/jDH4qf/vSnxX/+85/iTne6U1Sh97nPfVpb5xacniuvvDI6L3D/+9+/eMADHlDc9a53jZ8TsmQcE/BwTz/99OL9739/8alPfar49a9/3doy92DLXnLJJXFslm9+85vF1Vdf3dp6CzIZxwRu7je+8Y3iS1/6UnHeeecVf/zjH1tb5h4pHGRsFjFGYaBOjJSMNH6Kwqf4Ul5Gv7i+nUgZj7R0ZjfSvel2vkEW53LOulZeytRYumVfYGQ2o8Dqj370o+J73/tecdlllxW//e1vo/2SMXrIfrzhDW+IoZZ0UwW52WWkkBij8MqGG24Yt8EvfvGL4kMf+lDxta99rbVmMCCT2OKDH/zgGNZ5/OMfXzzqUY9qbe0O5P373/8exwdsReGkO9zhDvFzG8g4LFasWFEeeuih5fbbb18+5CEPKcMXlbe61a2QPC8zsOy+++5luLFlkE6tO9AfF110Ubnnnnt2Pd90lkD+MpC9XLBgQblw4cJy7733Lk855ZTyuuuum9Z4umEoyfjf//432iZvf/vbiy9+8YvFFVdcUdz61reOT2zGzEEeecmSJVH6JclICwlGU5/ugYxHysIAB+K9731v8fnPf761ZjgIpAuK+x5B8UMOOaR4whOesFYgG4zJvilFaVyk4m1uc5v4OWEoMso38twk4hGR+A6SMUb5M2YOMijPe97z4vVOZJQ/VpggEyPrgSBUaYJ88Fe+8pXiwgsvbK0ZDhwSql9uGvkVTSiAkP0JWrG112rwpn/1q1/F8YGw08Me9rCYglwDyDgowtNWbrbZZuX6669fhgGVu+66a3n++ee3tmbMJj796U+XG220UVSjgazlWWed1doyM/jrX/9aHn300eXGG2/cVuHLly+P6zsRPOdy6dKl7f322WefMhCztfUWDOxNM5QZpZ4Q6pox+4xnPCM+GRnjD1JZWdrOO+/cWrNaOv/5z39ufZo+BiajpDgPmq3CJrjf/e5XPOhBD1rbQ8qYFTCPXv7yl0fb7cUvfnFUhTMJXvV973vfmE1JEOvEi06oKCKsjM1CaCnI6MTANiNbQTHly172svjZBXjpS18ajdgElRoWkjNjdHBzSSaESFBlo/BVVY2qG+ETlToJNFmqxBkUHI+qgyJwLeuj2Ba6cQCEdpDU+EC60virDhbMKBkZuAo+m5QNGAcoBdtuu+1i/WByYPqBsykOrPh1UJC+T33qU1uf6pOxNpBxEAQVXS5btqxtlIaBlN/5zndaW1eDQRsG1t4nL6NZusUZ/R8kUHupboNRxBlf8IIXtM62GpyVd7/73e3t3TiQUB1f59gScm56THDuuedGW2ybbbYp9t5773YPTBMgJvnxj388FtVa1HN364EZWE37An0TmnhAbPGxj31srDRO+OEPfxjTg1KDGaODyuo99tgj2l5JTX/mM58pXvWqV0XzSXruiCOOKJ7znOfEbWA9gqYyrjpwj6UPHStWGCRj8dGPfrS1tb6aFnWxn8Yu2GeffeJ+2267bfycMDAZGcoCrKkUqJtR6sfICuQc9Wgh66HPpRpc1s2HgO6HgLIb/8xnPrO1dXXgGXm6ebu9oEZSIJut6V4OSkYckBx585vfHD97SEhvUrKKoTIwGc3BxRdfXJx55pkx5SbkolVUOGUYyNoIF2lTRahBySiicsEFF8R2VdAb88QnPnGNDFEEMmZkdMMVV1xRBju03HDDDaODMowDUwfZgcloDNZS0wKjStaHrXubLTCCGeydAdRJgxpSDgo7XtUUZ3LYLMyo1DSfQbxZJTpwwKSNO3t01iKjKLkehSOPPLK1ptlwIVykbqVLk4Svf/3rxVFHHRVzw3qTJSOUmg2DUZGRHat07W1ve1v8vPvuu8eqo7VsWmSsQjD7pJNOatsBTV/CDyzDDWiNfnIxE1U7o7IZA2lntmonI2PUWEtNC3ASqcQziFUJsDalNEy+W8wqSAJSPYp+Y1VQOsmgRhU4K0qRsza1ybCmy6jUtJi0fY0P9L+wa8VL1wAyVtGppvfdd99GFcxeeOGFZbCHojoyvqymZw45tDNPIJOhGokmqS5SXzfdtHpSzNkEySXVp62A52ocTYHrwTE2NouCbFGbTmQy1oDQRJACMcduTkLZDoUJX/7yl2MjWnXh1crJ20e4RUoNcWeaoG7wRz7ykeIDH/hArBdo2owSrluaUcLEpnlGiQGhnP6zn/1stE9322232Cu86667Fvvvv38MoVQXIQs2k+WVr3xlJMcPfvCDmBKbSVTJyKY25qYgk3EI3HzzzTFeJ5eqwsSCiAipEZ2TEEycnovj3QAVSy7+QQcdFMmri1Kl00wWjqQxjAJaYd/1rnfFYPX3v//94uijj25tWQ3FMR4+2yypO7AbqmPqNca+3nRwYKKHRBr0Ag+rG9OnC9Ne8LDcuF691xdddFH7CTP0UXvTPD4X9lvf+lasVuG9s794hMr8zdKg0lpZv/99b5qFFYHti6zOY0ll/vbRI/SIRzwiSk2FAt3aOgeFGchIRNU1MhsqsvvN9DBboBXcN+MD1Tr4VC03hJGQUUmQJvFhof9WadT73ve+mEXohpkko98gDaocCyE5BR4QYRJTuKWp3FSbVMmoJwUY6VUyIrKmNSESn2UiEFqJlylKnv70pxfbb799DMX4nmHAISAQPDTG09kDM5dgL3tIUg+MUsNuPTBu6BoYJLRjWpMg0YZewgUsw40qg1fYOvPaGHVoRwl8eHLLVatWlYcddli56aabxvOaniVI53KLLbYow8NYnnnmmWWww3qWzHdDIHMZSF2ecMIJsadcj7HfGQhZBhVXBkKWgfxlIFF54403to4aDI4PhCyDs1Ref/317fMZbzAL2tuCpI7rIRA3/nbrbQ8PUfv3Od56i33sC+l62d/i3AmOr57POexvsS2dzxjS+aoYiWRkuJMCw4JkFBA1dcdatW4tjFoykmJm5vdKCjMepJCI8wnyshdJaS24dZufqkiX13k1sH3wgx+MJfckhek9qNRjjz22eMpTnjLUtDAarsza4PcEwkcp7nw+c25s9z87cPPNN4/HCESzgf1lRpD6frdxkWLsWyBl1Uj6yxb2NgXjB+fTqAVCXaIHNIDzmbebXQmktvGBmSQ6J6ePQMYqBpGMJMbKlSuHXgIpyssuu2yNp60To5SMntxgnMcGJ4FdEitcxCixTj/99DLcxChlNBENC5IgECKO3yRZJsjyG8KNj9L3xBNPHErCk7A0VCBauccee5TB1IjrA6nKI488stx2223j7B+HHHJIXA/BLi7333//uH677baL0j+NIQikuN5ywAEHlOedd15cH8gWNUWw+8ptttkmziqREGzC8vnPf348ZocddogTggViRg1x2mmntc9HA2kQ68RIvGmGaPiSoRdPEomYHIKZhupjjUIm12QfksrhYsaS/ac97WlRuozCngO2ovNzYF70ohdFbaN5io1Hq6jSppEG9bSDWoxtqKS8sE5Qh3G985NKYp62kVwJys1IRuttdw3sDySf9Rb72Bds95mUsyQ7EEhEtrFjjMUx7MWgpqNmSOczhqDOW0fdgokN7biQbr7JkFwoqs10HYjiL0dqELXcD0wRhNxzzz3jm6zU9lknUC5YLZhOnQZB0TqiHqg8r7tQlkUNc67Auc324Tttq3qwVCgVa73tVLT9gUq23mKf5AzZTmDw1C3Ud4KHTQ2lY4zF+UULPIhMhnQ+Y3C9O7HWe2A8UWwC9g2Y8erRj350/EFNgKcqpZXA7Fc6E0mwOnCTPa0S/G4+qeRCO8frXve6KK3qngucL6j7+Bd56xIYWYR6SJpk0wkN+atHxM1yE6cD5xQucr947KlQAoFI+bTN9yYkQlqPXEhjf7/H8dZbkCzZeLY7xv74UZ3iBCFpuHQ+xyCkxbmtd627EjJ86RoY90IJdmIwtOPkAjxmNlu4QGVwKkr24XQRpFi0LdmDU9m63cAW5X0edNBBsRbR7wnGfXncccfF+zBdJM/VUkVa5/u6bUvrq9vS+l7HVJeE9Hmq7+m2LWHi1DQbJ9zsKI3ChYm2Ko+Z6knxwn4gTU28+dznPje2PUgRihkK1rM3zzjjjBjsDte3dUR3sEXZx6IR4o6+n91GaotPGt90kCRzp3RO63xft21pfXVbWt/rmOqSkD5P9T3dtiWMRE27+PovpL/qLIxYN4u90WtgvTCMmmZQC2x7E6gwBDUhpCLHzEZ0oaYColDtyKJIQpiJoc5BMC5hMQY8BwKZqDlqMNlh3eD3U2UcEOdwPOfBtRH2YbtNCkZCxre+9a3xlQqM8DoLbwwR2GezSUaZEA4LQrHzGNMKh52j3zhU7Xz3u98tli5dGh88FTyOES9LUwGSZKmIlIOE3Lb3c4bYU0kquj4eVLYk22ump7abCilG6X55uMQYk2MEfq/rQlO4L/b34HVOj1wXI1HTVJ/B1l1IkhQ0nU0gECJRny6aHHHnFBvd4CKTqB/+8IdjYFxYQrDXQ0pFH3jggVFlU7UIRPUivv15x0Ie/bDJJpvEh5NERGIlaKQuAswVaBIaYPny5bEayLWrwthcF9ssvapx6mIkZBRKcGPqLsIZJMZsw0Mj+xEM6BjGEH7gFfYD9atyhUR1LLV6wAEHFF5lccIJJ8QMkEzQKaecEitbFAIgFGkhhkna9QPpSMKKbzoWgUnXuSwFYzrI03uoZLxSq2lCImPKiCHjMNMfjoSM3kly4okn1l6o9V122WXaKnoYkFTUSUr3kUJCEnXG4DgXHRFBwPrZz352PF74BXn8ZSqYN/G1r31tlJwIxpxgJ9eBNJlxpZAOFSkYPZegRfxuS6dD5vNU26eLkZBRSRXpWHfhuQ6Thx0EzAO2XMowkNDdpvLtBtKJykQSDoXyL7Zcp/eNlJwWkl+sUPySpPC9dTIrjuXdi9UhMjKSjpOCkZBxPoAtU1UhbLS6D4RAtOPZmcwLXm6vuctJWtsEfDlpSEgac2z6SQ62JmdHQBjRmRVU/aRgYsjIU0UKZCHhqNG6k+GTpjxHkq9OZsR2+9kfOEActjpqjCeayMiBYLdNCiaGjOnGJkJZ6oYgSCvkRSoeeT8Pt3M/pCdN69iniJzUdCbjmKJKRrZcP+lWBXJQ6SmupqmdQ9QNCMj75kWThmxMqh0h65LRMSlQLuYoZz2sczAfMDFkJK0sSU3XIUaCEBCHh00nWC7E89WvfjWSrgr2od5lPUFaRX0Wd3R8XfIbF6mYxucBMO5JQF8yMrxlZDQnNWExFtJpukAGCwnj5k5H0oj/CZArsyJZ9cfoHNQaKg5HUuqdQdLTTjstzq8tk8U7FlQXrqkL40L4FEYy5k6vfVzRt+3Ak60cic3UBPBsV65cGUviDb1u24HChpNOOikeS2VqthecrishxRrlpN/xjndEsgCyCZor108hHB5wCuNo1TjssMNiAUXd73EehRyKbf3/whe+sDj55JOnzG/PFJgirq2HjQM46Fw7tYGMVVzVUUIWLmIZpEEsyW/CYizGlMZXt4Ts1FNPjaX36bhzzz23a1NQL1x55ZWxNSA4PnEM6Tz+T0t1XJa99torlt4HSdw6S3+4/sr6w8Mf3+usXG6uEB6uZs21E/aJKoPt0oRl0Eg/aciDTmDT1VH3pJN0mMJbEotDkVQo+D8tneNiVx566KHF4YcfHossqsf1AhNC1sX3yOhUxzzuWEtN8zplHMxeOx8g08GW62dXUTWS+ZL+8MY3vrFd9t8NVDGVK//MHqTeE3mpZlkn4ZpU/Qy8XhUuTB0qzjmoV5keKlt/jXQh9d4NPHG5c6lGQXbfs99++8WXP84F5lxNjyvChS2POuqo+F5sP1sHXXjgWlvXhOrrYJOWxx57bLnJJpu0K8IXLFhQLl68OJ7HzLBB2q3R3UglMweWLFkSK+S32mqrMpA1ft8GG2xQ7rLLLvG4QNbWN62JQP4y3OzYoeiYRYsWlcEpam2dfcy2mp4YMgYpVQbvNxKKbbf55pvHz532XDAFyuCxl8ccc0wZ1GTcl51ocgEtm1osg/Zo7d0dznHttddGG3OnnXaKkwEkO3PHHXeMBOt2jksvvTS2sXpgfK92hEsuuaS19RY4v3H7O5NonM04LhC7UyuoEDfc6FhtrhKnmq8GqpJaUkTLbgvXKL45gFo3CZKcc79C3kC8GFhX58j7fslLXtJOPSqzUrjsuzvBPFKkzDam3hWUyKF3wriYEMZaxw6dL5gYMkKy3ZARyZDOBE9VyJwghBCSfVS6s/W8OQChEK0ugvcfyaTw1nv9EAx52OMIWe0dVhUkfsmxso+HBhkd0wkPkrrJILWiY8XBEmxPIaf5ioHJqPgziOTYgGRhyHYWgmqSJ03SPuJwcwmxUsa1lk3SzZyBCMnhQDzpO5Xc1iEE6aa/2eRM4phIPF2Y3EhZ2M477xwlrHP6PsTjYZOCCjHUPJKaYpSkuLnUOVfdvtN2D4VjzOwlfoqcpmgRk/SAqfZx7vmEgcnI63Yz3/Oe98RFELmz3MkT/IlPfKK9zzAl6aOAMAli6HuR/yX9kEIWhcozXhIm9ehoI9DQX218HwQkqjpOL2/kgSOJ8I3Kaf+bzk5Jv++WcrSvmslefUceqlRNbqxIKfujcBkxzedDWpqEH+FJW1LYA9dkTJSaBg1F1CaCufEyOdoFZFg8UApa3WQ33CSfwiuDNhhV4XtlU6ht0tKDiUSkpLSiXhmSWVFGdXzdYB+2qweKlASSXArSLLlSkt5g+vrXv7545zvfGadwoaUU6rKR7ddEW3PiyOgGq9I2maYbTmJwJqQV5ZuR0T7syx122CG2mo4CyamhepWkqSAiEYM3Wpx11lnRxEFS6Vexval6hNiRCLlw4cKeQXGqX5xQntzbzjSOiVn6PqZIZ/C+CZg4MgI7TOM+Ow7pSApOBdWJJMrF0qyyg9iJUwHZkBEU+3oASCtkFcDXTySQzvmZClS/FlsStxeoZWYAx8bvElAnNQXROT80AWncFEwkGUEz1bOe9axISNkb2QRS0s0jwdhroyYiVMlIerGzpQA5N9Szv0n1TgVkfNKTnhQlJCL3A2KmUJDvFyXwdxQmyKgwsWQkeapN/AiYpBEVxjGQAuSojcLwRzx2IvI5Z4LvlM6UAjRFCrOgzkOARMwND9VU+Wvnl35Uj6l6SMpOm620XbemsrnExJIR2GjijnKr/qYp4TgVYo2nnnpqNPzZXtTcIKQk9eS0OUhms3BONirCCS+l/DObbjpeO2noeETW4toLyMgZEyv11lW2ccrJ9wvezzYmmoxAEokjsqX0crMXxfrYj2KkwjFmgBFTHSSojMjmIjK5k8WLi2RPSCR1ouosSavqNHXTgRCPespeMGb9OIm8dUyAucLEk5GEcoOESYRCNOCrzraOalWJg0DKwBDTu07E8xQgi1EiLYlJ+qlC5wiJ8YmrHnzwwZGASM15QHI2KdVKOpnLG5nqquZu4FGTqL1IlmzFZcuWxYob420q1pr4qS7qTBDlBphRgXQAudq6jfOzCUQgOdhWQiqkFMK4iTxe5VNI6XcI/Qj2+23ISGLKeJiTRqkZMgqdmNLEb3eNUkMVdbp48eLoqLDf2KyIWMcB6QUS1ngsTAkQmkJS98LkBb7bbxDk9zBYz2Pv9wDwtN1fv9uDlGzbBLa1QL2kAdSZJGwqTLxkrIJ9JR8sFfeKV7wiTpXn4qtBpArdVORCMhkTMTzSRlGFrAd1zNaU9dCv4+a76cJE5tChjklKUpHXPJXjURdsXA8P2zPBA4/03l6FlMieMj0yYhYEY882CZmMXcBTRT7BZ6pUH0sqjOWBpsJaoRE2ZnUh/UhV+5AUCixoBBkR+WOee79+nenCmHQgJpBO5p30sijkNx6/CSE5T176xMwQMWhScUUmYx9Q26SMLIYmqc997nOxGIHtSHoKkVQXxHWzpRjdcLlihNAhOIw6ngqkonx2gsiAh0HJHEIae3JyxBmR8Igjjoi/ReSgKchk7AN2FfVNslCrnAW2nlAMNU7qVRf2IAfIPpwi9htVOlNEBONCNtIxTfUnnGPszASBfeGrasssk8NxvfLfc4FMxmnAzXXzOB1uNkMdCaoL9c0RqgbRZxq+hypmEsjKsBkTyXjZzAmEVKihGoi0J9XVTCJrU5DJOCagkklrhEvpxipIdHFUAXaNVbIwyukE/puCTMYxAfXMwZLe7OUg8bp58qJ57MwmpQIhk3HCwH6ViekXY5wLZDJOIJpIRMhkzGgMMhkzGoNMxozGIJMxozFYa+KnupBGUtEh1QWKAKTDqpP+pJfZ6EMGvdW9JlrKaB705ixZsiRWKKnSmumJn2aVjJL3UmQZ8wN6grysU/WRgorGzkJmUstly5YhclzCQNaa9Gf58uXxvc5pn7zM72WmJ36aUcmoykXPhyLUjPkP3ZQ0XcK8UtNEPCLO9Rw7GaOBWSwU7CbMKzIqg7ekCdcz5jf0aisgTmiMzcheOOOMM9r2QnhiynPOOae1NWMScPXVV5fHH398mwMHHnhgecEFF7S2Th8Dxxkl25UqqfxQOEoVm+1Kk07GZEAfjXueoFpomL6egdU0mMFLZbMBKfBUL0dkq53zuakJ+YzhIeyTHFSdiYSSHnDNbN3qKetgKDJqRjegIKpjXwVpiYhm+KpO15YxfjDDr2A4DmjJ0HymV1y7xaBCaCgyCoTqCTbftXeepIEhorq5LBnHF/qwzRnkPuu50aCmEazXa0XqYCgyJpjoUgO7TIvZXztnsM0YP+jx0e+jLZZ5pv9m2L6fkZARzIpqFoWLL764PYPEfAVp76FKszG44HqTB4WHUwO9UAjbSlP/oHPrNAUauTSg6Tg0V9FITDJkzFgTwR4qd9ttt/a7W5YuXdraMhjOPvvscuutt47n8x6ak08+ubUlo4pcQpbRGGQyZjQGmYwZjUEmY0ZjkMmY0RhkMmY0BpmMGY1BJmNGY5DJmNEYZDJmNAaZjBmNQSZjRmOQyZjRGGQyZjQGI6tnnGv4GV4roWZw2Heb6PX2ygwFw87p5Y/mwh4UK1asKI477rj4NilNS94pXe0/HgSa4LR5aB+drYnsZxpjQ0bv+UNEExV5q/0wcJ5Vq1bFV/K6PMrqvVdlUGjH8FbVa665JrZleGfLoK80S/DGhUWLFsUK62ov83zG2JCRNDRrlpdNqqoeBoht4oEkYUmgYd6X4jzO57wkmjcMIOUw8NJzTfP77rtvfNPBWAAZxwE33HBDGSRiueWWW8bq7HFfgrovDz/88PLyyy9vXYH5j7FS096Ayjbz5tNxh+YnLcFekNnrVRvzDWNDxoz5jxzayWgMMhkzGoNMxozGIJMxozHIZMxoCIri/wH+BjBAtDqcdQAAAABJRU5ErkJggg==;strokeWidth=3;imageBorder=#4376bb;" parent="1yb4j-lFQ4wOXY7LEsBq-1" vertex="1">
          <mxGeometry x="479" y="193" width="72.58" height="61" as="geometry" />
        </mxCell>
        <mxCell id="1yb4j-lFQ4wOXY7LEsBq-36" value="" style="group" parent="1yb4j-lFQ4wOXY7LEsBq-1" vertex="1" connectable="0">
          <mxGeometry x="200" y="305" width="80" height="80" as="geometry" />
        </mxCell>
        <mxCell id="1yb4j-lFQ4wOXY7LEsBq-37" value="" style="shape=ext;double=1;rounded=0;whiteSpace=wrap;html=1;strokeWidth=2;strokeColor=#4376bb;" parent="1yb4j-lFQ4wOXY7LEsBq-36" vertex="1">
          <mxGeometry width="80" height="80" as="geometry" />
        </mxCell>
        <mxCell id="1yb4j-lFQ4wOXY7LEsBq-38" value="" style="endArrow=none;html=1;rounded=0;entryX=0;entryY=0.25;entryDx=0;entryDy=0;exitX=1;exitY=0.25;exitDx=0;exitDy=0;strokeWidth=2;strokeColor=#4376bb;" parent="1yb4j-lFQ4wOXY7LEsBq-36" source="1yb4j-lFQ4wOXY7LEsBq-37" target="1yb4j-lFQ4wOXY7LEsBq-37" edge="1">
          <mxGeometry width="50" height="50" relative="1" as="geometry">
            <mxPoint x="400" y="40" as="sourcePoint" />
            <mxPoint x="450" y="-10" as="targetPoint" />
          </mxGeometry>
        </mxCell>
        <mxCell id="1yb4j-lFQ4wOXY7LEsBq-39" value="" style="ellipse;whiteSpace=wrap;html=1;fillColor=#4376bb;strokeColor=#ffffff;" parent="1yb4j-lFQ4wOXY7LEsBq-36" vertex="1">
          <mxGeometry x="60" y="7" width="10" height="10" as="geometry" />
        </mxCell>
        <mxCell id="1yb4j-lFQ4wOXY7LEsBq-40" value="" style="ellipse;whiteSpace=wrap;html=1;fillColor=#4376bb;strokeColor=#ffffff;" parent="1yb4j-lFQ4wOXY7LEsBq-36" vertex="1">
          <mxGeometry x="48" y="7" width="10" height="10" as="geometry" />
        </mxCell>
        <mxCell id="1yb4j-lFQ4wOXY7LEsBq-41" value="" style="ellipse;whiteSpace=wrap;html=1;fillColor=#4376bb;strokeColor=#ffffff;" parent="1yb4j-lFQ4wOXY7LEsBq-36" vertex="1">
          <mxGeometry x="36" y="7" width="10" height="10" as="geometry" />
        </mxCell>
        <mxCell id="iQo0lqwMeCaO3AEn_KP5-5" style="rounded=0;orthogonalLoop=1;jettySize=auto;html=1;exitX=0.5;exitY=0;exitDx=0;exitDy=0;entryX=0.5;entryY=1;entryDx=0;entryDy=0;strokeWidth=2;" parent="1yb4j-lFQ4wOXY7LEsBq-1" source="1yb4j-lFQ4wOXY7LEsBq-23" target="1yb4j-lFQ4wOXY7LEsBq-28" edge="1">
          <mxGeometry relative="1" as="geometry">
            <mxPoint x="550" y="280" as="sourcePoint" />
          </mxGeometry>
        </mxCell>
        <mxCell id="1yb4j-lFQ4wOXY7LEsBq-23" value="" style="shape=image;verticalLabelPosition=bottom;labelBackgroundColor=default;verticalAlign=top;aspect=fixed;imageAspect=0;image=data:image/png,iVBORw0KGgoAAAANSUhEUgAAALEAAACxCAYAAACLKVzFAAAAAXNSR0IArs4c6QAAAARnQU1BAACxjwv8YQUAAAAJcEhZcwAAEnQAABJ0Ad5mH3gAACtUSURBVHhe7d0HmFxV+Qbwi6ioGLFhVDQKWBGwRFEEpSOdoPQAktCiDyJIEcXyBx8kihIVRRQQRCKhiNJEioRQNDRBBelSIoqgiKjYgPu/v8N+8e5kszuzu7Mzd/a+z3Of2Z2dmZ1zznu+837lnLtEXiCrUaPCeFrfY40alUVN4hqVR03iGpVHTeIalUdN4hqVRx2d6CCefPLJ7Iknnkg/P/3pT8+WWGKJ9HON1lCTuEPQ7f/4xz+yv/zlL4nIEydOzJ71rGfVRB4GajnRASAt8v7kJz/J9txzz+wDH/hAdvHFF2d/+tOfsscff7zvVTWaRW2JxxDkw7///e/s97//fXb22Wen65e//GX2z3/+M3v729+ebb755tmGG26YvfGNb8ye/exn972rxlCoSTxGYH0feeSR7MYbb8wuu+yy7Mc//nF20003Zf/5z3/6XpFlq666arbuuusuvBD5aU+rF8uhUJO4zdC9JMIDDzyQXXPNNdk555yTCEw6DIQXv/jF2eqrr57ttdde2dve9rbshS98YfaMZzyjJvMgqEncRuhalhZhzz333GzWrFnZHXfckZ4PhCNXfk6kAnlnzpyZrbXWWsnpe85znlM7fYtBTeI2gf597LHHsl//+tfZd7/73WR9//jHP/aTDywscnr861//mv33v/9NzyPrkksumb3kJS/J3ve+92XbbLNN9t73vjdbeuml099r9EdN4jYAGckHxL3ooouSjODMIXZg2WWXTbJh4403TtqXpf75z3+eXlfGy1/+8uwtb3lLtv7662fTp09PYbhaXvTHkv9XoO/nGiMEKyt0xnk788wzsx/+8IfZz372syQnyrZi5ZVXXmhhN91002yVVVbJnve85yVL6zMefPDBha//29/+lv3hD3/Ifve732V///vfk4OI9LXT9z/UlniE0H0uVvaWW27Jbr755uzCCy9MBCYRAgj33Oc+N1txxRVTXHiTTTZJoTSWFUiPe++9N7139uzZSTsHaYHEYIG32mqrFIZ75zvfma2wwgrpOdJjXOtlJK4xfBSWM3/kkUfyBQsW5DNmzMhf+cpXMgr9roLA+TLLLJOvvfba+fXXX5//+c9/zgvJ0fcJ/8Pjjz+eF8TPC+udF/Ihf9GLXpTe2/h5hVbOd99997zQ23mhs9N3GM+oLfEIIHFx5513Jut58sknpyX/0UcfXeigBVjcKVOmZDvssEP2mte8JnvmM5+ZLPNA1jMcwrvuuiuF48iSX/3qV31/fQqiFxMmTMhe/epXJ1my0047Jau81FJLjUuJUZO4RSDZv/71r6RTL7300mzu3LkpAnHrrbempT+60xJPPmy//fbZu971ruScrbTSSonAQ8Fn0MaITF9LSZ9//vmLaGufVVj+FE9eZ511sjXWWCN77WtfO+6yfTWJm4SEBfJyujhriHvFFVckDcz6liHyIPv21re+Ndt6662T9WU5myFwGSw6q8wSn3feedl1112XSC3zV450CNNxDldbbbVs8uTJ2ZprrpnCc543mXodNYkHga5hXV33339/kg5qHebMmZPddtttqQqtDKR52cteliwv+SAshrwjJZIJVOjo7Morr8zOOOOM7Be/+EUKxTX+fxaYrJg6dWr25je/OXvDG96QvfSlL00yo5fJXJN4MdAtyMPquWjT0047LZG4EXSoKIHQ2R577JHCZoVTNqrLuu9DYlgNvve976UECgvNWg80hKIgO++8c7bFFlskyfH85z+/Z6MYNYkHAIcNcYW5WN358+dnCxYsSLIBicoQImP9dtttt7Sc06RSxu0ocjdUZITMn1XB9zrmmGOSPkfwMkiXZZZZJps0aVKqkNt2223TJENm362XHMCaxAWCHGQD4lq2r7/++uy3v/1t+l32rZEkyPuOd7wjpYM5Vi5aeCySEL6n8k1kppNZ5Hnz5qVHyZEySAnfiy5nncWXyR2TzffsBUKPaxIHMR9++OHs9ttvT6WRv/nNbxKBaV7ZtzJYVhqXE/WmN70pOVCs7/LLL9+y0zYaMHTaIEnC2ZS21gZk5hCWnT+QFfS9OZzCfkhNO8fK4aoixhWJY1BZMtKARCAbLM0s2QUXXJCybLRwGbSkpZmT9LrXvS45bUJaqsu6pY6BBNKeq666KjvrrLOyu+++Ozl/A7XH9yUrhOQ222yzNAlFM17xilekdpqsrqpY6HFDYgS2BLNcllyDLWwlTGbwB0IstywY0qp12GCDDZKUYHm7bZANZYQCxa+lrxXgxz6+RsscQGCE3m677ZI80maRlpBGPrebHcKeJjHPHWmRTl2DJRdpI9aKzJbdxgwbGES6kUP07ne/O1tuueXSssuCGdhuHVTD6bLSCMtJmIR19rOJ3IggLSvsUazZpNVuTqv+8Xy3hul6hsSsjM72yOpIAdO3LkurJIVYryX2oYceWqxVksrl/BhI0oFHT0aYCFVaYg2rNoolazOtTDsrC3Xdc889fa9cFCEtxLw5hcpB+QH6wvMstM/vltWokiRGUhfLEOEwEQQk9Wj5JBFYHhcSW2YHaipyGigWB2lf9apXJWfNgIn1dsJhG21ot36ij61CIhqiLkjNH5DObgwdBmh+ZLYq6R8xZ1uoTGyE1ncveMELkqW26rHqY71SdSWJWZD4WtEZOggR46wGxGV5Dcx9992Xogskg6jCQHHTgM8zMGSBwTBAahpEGpQ4mhiI7TW9CP2C0OSGaAbtrM9MfmTWt/p1cbQQstNvJrmMoAgHYiMz8iJ0yBJ9GAmfWPnasZp1nMTx7z26NFZHswx+D0toSRQKU7Nwww03pOVR3QJdyyoPhug4l47V4Rw0UQY1DiwuC9ILVrdZ6Fv9htD6UFiOblZsRHp53liUDcpgQFqhO+TWp8jNWrPg/k9IPf3vtWGtw0jF43DQURKzrIgZmTBEjZoEEiCsQ1hdneF1cUVHD9YE5GR1xUN54LQu3ctClItkyh06XqDfXPqQg8sRRGhJFLHyiDvTz14zGJDSChYXgxCGQR8jNOdYnwtNkm8eVfr5O909XAvdMRJzrqRN1QEgI4LayWA5Q24yQce6/L0V0Gr0G5kgU8XSWgKlYHWWhIVmB3nHAkgQE9EgGzC/RxtDf/t7SKGxrA8OMntkIBgQfoVHRkb2UrkpI0NLe02zQGZkdTEeSBuSQ5uNBzm35ZZbJnnXKjpGYp2iIuvggw/ue6Y1xMwPgprhrtC6SEyzsbo6SzN15liFifw/k9EkQVKrDCeTtTNZ/c0l5OWiJS21vqOB9rulmPUy+D5vLHV6fH+TCvgdSMwh5EBHCI/0cPnZijkcOonDO/3oU5/6VBqzVtHVJEY4MxVZDazfbaZESs8ZaNmmIOzrX//6ZG2RxoCP5aAHdCeLZvUw8AaWo0nLX3311ek5bfcdBwLCskbaocaBvrSymJzaqk1juYKUYYVAav+b5DMpw5nWJuSOlUX7rTRepz9C/g2EniKxzjFArKyfNY6WCqIaYM4DmSDxgMishUdk7wYYaJbVUnzSSSelQwPp+8WRdiiwzNpvG9KMGTPSymMpDq+/00BUbUYjBsa4lmPzNDUCC+WJ3cckNxmCej1FYg2Qy5f6pF1ZHV/PQMbOiLDCZWvkMX7uJBBV5MR5Ey6WiaNkkA3ccKBd+kH7TVyJmB133DFpSJq505PX+ASFGB9tRdogN5mh7TE+fB1ncaiHtipBT5FYnPaggw5K9a+sroaHJtNBYaG7CbrPYJENLK/UNkvE+TGQZSAdjR7REVaVbABWS6TGRX7Qn97fODw8egPteCvb/lWlmdj6ptvgu0cfxAqL4PrHkbZ2qEBPkfj9739/dsQRRyTpUAWYYJw0ISg7kxXQa1fZc7fEctBESWhdiQHhJcSj6eldiEQDy4XE9KbIAEfK0uxvZZAYTg+ycpFYnFkrVrdDn5nwIhFqOmCkJDZbOoJikPKZM2eaQAuvgsR54ST0vaK7UQxGXhAvv/LKK/Oi8/PCsubFKpHa4dHvBdHyDTbYIJ81a1Y6I6IgfF7Ii3S+xOJQWK68cIbywgnKC6cpP/roo/OtttoqLyZCXljyhf/DVWjjfJtttsnPPPPMvNCbg35ut8B31G9rrLHGwnYUJM6nTp2a2jsc1CQeJgrnLRF4t91269cGJCs0e77yyivnX/va1/LCkuaFZe57V+sodHZeWPf8lFNOyQsLnj67TGQXQnz/+9/PH3300b53dS/aQeLuE1JdjqLPks4TfSiIlY6rKoPz5Zgqe9/II3JhJM4XHS1WvNFGG2UFUZOEoKXLUNTDkZRhG24UpMqoSdwiaDrO13HHHZddcskl6eeACjiRg9133z3tuRMeRMLCcqa/mwBCgjSzRw4hrSt7aWJ4TizV8wHOkElgcjiA5UMf+lAqzqezA2Kxit8V+YuIDOQQ9jI6diqmweOlIkLAvi9nNTRamm6BUJEoAusrXc6J8xyHSlERcjnxxwbSiBggMOIjFodGTYKkh5S7SIbL7wpwHAcgnup1HELvj8vn+D9CjwiN8BxAmTPwKD7tfYpwhOW8r9tgcpnEnODYUWOiS1QJrXJQW0bxoR1BFTUxh+vyyy/PCw86aVPfeckll8wnTpyY77zzznlBwuSQlcEBfOCBB/Lrrrsunz17dr7DDjskvTxhwoR+bXcVBEyf7TUnnnhiOljQgYF0ZDFZ+j4xTxq78OzToYL0ZEHW9H6O3+TJk/Nrr7026ePye7oF2lJr4g6ChZRmFfaKMBrLp0Lu8MMPT+Ghsv4t+jeF4BwB4O/Tpk3LTj311JTFkgRpBFkgPuw1XivcSOdGrUWA5VKNR1pEnBhIEeE+qwQrV35PL6MmcZNAEFIAQUiIgPoG8c3Y+Ryga8V399tvv/R3hw+SFK3ADmxx9M985jNp8vhMEwNMFrr4i1/8YtLKkYYmK5xWJMZc/p69jJrETYKGV+iikCeIJGlB/7LACBwOHLJJVrC+Uqx0rnRrvI/mR35HsiK5LCUtzbqW/QGEZPUlUkQ7EDMmgv8Vq4CEh2QKsL7qgW2Ipdnp8V5HTeImgBiIaCcJMoI0qntu2BWsriEIjGRea5cEB5Dz5f1ezyFTyLPLLrukM9tcIhmOwIqfEdtrFPl4DxKqMXC0K5kh+hAygeOGyHapkBWss4niPay4LVs1iWskIKZYrCsgZWxLO4uqIAkQSNoYgdRR0NBIhIzCbeutt1524IEHZh//+MfTYX+8cRV50uxuvkgHkw9eY3Koj2bhyQJW+Ctf+UrS11LUIRUQWVRHRML/CIh2jBddXJO4SbCuLFtAHFgdBIIGEIvTdvnll6fXh3xgqS35Rx99dCJukLMRHDZEVNwjDi3caLIAMiKyBIvwnHBagAUma1S4BUwmMexwQHsZNYmbgDpYOrNMCJV2NHE5GsH5U5nFAQwgq9sckAv0rlhvSI/FwcRQBL///vsvPHEoIFqhQq4cA/Yzi+5siDJoeJOq1yVFTeImIDKAxCwtAiImh6pxc6OUL4LRrQH6VqpYML8ZAoPXeK33OGleiWpAaE6SCEEDXs9i+z7IH//D5OPclTOAvYiaxIOAHLCMxzYjQFrywLKv5hnCmSI36FBkRiQWFYGFwDhgrYIFprlp77JsEbHgZJZDdmG91VkEickJKW3fLaRNL6Im8SAw8CSC8FpICRZSarSsaeN1lvrYrYBUohGiBmLIQaxWQYIgZtnCiniw+P5nGSaVgqN4nSSJMF0vExhqEg8Cg88Ss8JBYuRV3I6kESHwOks2CylyAJIP4r6yaSMhESuKyArfQ7qwrmo4GnWx/1kmOwILCfquw51EVUBN4iGAgORBLN0IgVTIHMTwKLLAuRJ5ABpVGE1lW9n5axXei8Biy/43iIr43JhE4PuQOUgckMYWxSivGr2ImsSDADkRh5yIkFZYvLKT5jlkExrbZ599spkzZ2aKA0UwbL0ZiRX02YhJG4sT+2xZPnFlEyfgf3htEB1MPJfv2suoSTwEkIMlDg8/iN1ITM9JP7tbkcybskxadiRWOICEtK5kiOye/yHBMZSFZamtJCOZRFVATeJRBMvImSM3OFkiEqzjSIHErL9oBaeSZR6NydErqElco/KoSVyj8qhJ3ADalxMnpCa8ZSn3GJEAj/5OA5edqG6A79lYK+E58eT4m+9eTpL0AurDUwrEQIsHK9xRPCNRwKETJ/7mN7+ZYsAITpsqRvddI5zWLZAAsWH02muvXTjpFAYp76Sh6XRxa9/b4Su0u+dHQ7c3C32tn0fz8JRxTWJN16mSB3G7BB2LDLJijmNF5KpDdEIkQ8GSDa0K6FW8iWuLcqhdLocM24l2kNhAdgTdsFG0WFbTJs4TTjghX2WVVRY5lKSXr6WWWiovjEU6PaiYrOkwmLFAsbLVG0VHA5Za1WBKJll++9TK9b/jAaSROg9bow499NAkQ0ioKvbBuJMTmisdS+N+/etfTxs4lSzSvgHLm2VX4Q7dWHVYwtVQKCd1Ne60lkhRrB9ln3R/u3RyrYlHATxzmreQEOmMXNoXRBrUHkjvuvOP2lwkHkkFWrfABOWs2hmCxPS/4n2+QAy/dtpJcthhh4346K3BUGviEaLowHQYyZw5c/LC0uaFM5P+L304adKkvOjYvFhW82Jw0wmWhVPX985qQ7u1RZsKK5zPnTs333777VObC7Iu7P/lllsuHfCijwrJ1ffu0UWtiUcIcVJ303R2hJLJkBCqwpyhdvzxx6fbhEntShlbVnsBpIG2aJMwmyL7z3/+89nee++dVpyA8s5PfvKTaUtT1IpUAeOKxMWkTc6MHcN+BuGl97znPdn06dNTTUK3JTDaAeE2O1PIt7XXXnvhbbdMavLKmXCkR1UwbkgsIkGH258WZ0eAkkZHsboFwVjFSjsNbVRMZAVSpywhYvKa2CywZInDX6pijccNiVkZA+NoqQCLZAA5c71eON4IROa8qXmW8OBcBezfs9mVE1YFjCsS03yxfQgilFYewPEGepm0KGtjkkIYbizT0SPBuCExq2JgBPQDtCCHp9cKYloBayykRloEyK0q7QgZNyQGRI6IBCAxx64qFqcdQFRFQeUDWhCYPq4tcRfCwERUAuzEGC/O3OKg7Zy6MmGjn6rSL+PXBHUQLN1ATpNVorxS1GgONYnHCCwb8kq5ipI451jqt3zFPTuc3IPM5VWjxuJRk3iMgMDqFhQcHXXUUanYRnirfNkh7WBuNzV3TEBVQlydRk3iNgN5EdKJ8fvuu286m9jh23HH+fKlCP+CCy5IZ1Y4Od7PnmvcclSjP2oStwlIiXwOu/72t7+dffWrX001u6SEWHXjOWrgOdVmXuNct1mzZmXHHntsuk1YHN5SY1HUJG4DEBghWdsf/OAH2cknn5zNnTs3EdTfRALUadgu5MRMB3bb8+bMCnHb2IzqPe4ievbZZ6csmjSw99foj5rEbQAScs5Y3tNOOy3Va9C3yCu5EjceVIDjRJ+99tor1W8oxrHvTew6wCrTyOeee25KQtQ6eVHUJG4DWEzkU2DOGgdYWQX/ZAKJ4dZeM2bMSKfIf/rTn07PcexU1ZWr6RSxuwOndDCNXaM/OkZig1Q+EA8MkK1DVQYdLFymZlmtRpBOane77bZL9+1QdEQ6qO/VD5IKfmaBV1ttteyAAw7IPvaxjy1Sz/CJT3xioazoJUQx0nCTKx0jMQLbDlSGwSnXNlQRNKtKOdGI0LAISvcqexRKo4dVzZEXMXDILHvoSFg6mbxQvB5nWzg6gIOnnLTKE11/kERlba/tJvBwazU6RmKD2LhzQuOqbmWE05DYPr4YKKfFb7TRRumsB20erCbBgJrcbumFyDSy1+sbiRIJkSqVSTZCn5iE5e9vIusXbR8OOkZiX7xxMDVsoNBTVWCAWEpZtzI4cW5AwyI3A/3itZtuumm6wU25OEfBuv9RVW1sjJ1gX06v48JIalg6aonjxtoBjSvfeahqMDC0a+PWHtqWJm4VBtWRAfb8BYTplJSKgFQRJnrIrIBJS0ZVTk74wmULA2apBnosN7IqQGLatZxho/Ua29ksBiKxRIkY8mCSpJthbB0VUJaNZET4CcNBV1ligy++SlJUkcTAQpatpMk6EsLpp/Lg8uJ9XlX7x0S3UjWSuPGOVK2gYyRmZXxplioEPcGvgVWt4NIODko5dGhi0q/DbY8+KUcjWOZmtXW3ITKRnN7yamWik1yNIddm0TESW1YQuXx3IeG1Km0Vb4R22LNXXv4R0OpCx7ZCZK810AqAyn1CW4sxD9eT7yTCqXOEWJw2GsbM/U0qR2IwA20RimVEwzguGlNVzWev2qRJk/p+ewpRO9ysM4bAViNRjvK98cAxT+08ZqrdsCqVLbFxNt78huGOeceY4gs7jcZ5DzED6STWWEOr6n3bOayYp1z/MG/evFQIJBXd6Jk3QrtZ71tvvTU78sgj00EvwGIhrkRIOZNXJVg9jLsDbILEpJH28IOGO+YdI7EGIbFagiBxLKHCbFWNg2oLS1y+A6jV5ac//Wn2jW98IyVCrDgDDZjnLLcSGu5Xd8UVV6T3Aq0t28cKNyaJqgKriwlKWpEWgMSkBLQit8roGIlZFg1wcEc5BGWALb0s8nAb1UmYnE5il6ETfUFk5ERe1nj27NnZPffc0887D5i4in1OP/307Kyzzlp4aqXPdGqlnR+sVhX1MCAwA1V23J354RTSSsoJ8MWVJRpspAaz1BYeztBwl5dOgs43KJtsskmyxlYbbdMWiRB3BXWkKZ1bnqR+ZnUvv/zyVH8cYUbvFZGQslZAFPeVrhqifVGWGuCkrrLKKgsn/HDQURJz6FiWcqCbJXaCuzqBcmOrhCDyl770pXSTmhgcRDZJzzvvvOTsla0xK6zdNLC2B8ERViGQs3tZ4+inqkH7WGGrbHlcRXJM9pFMzI6S2EBpHGscYSma+LbbbktLznBnZjeANqb3kW+99dZLxA4o0aR9yysNcir8KceAWaddd9013cuZFo7Vqoow1lZXx8YGifURB5g1HknbOsoSJNUQy0mUHBpY1tisZbWqCpaF3lMfrIhH/Dhg4jYmdAyiqMYGG2yQNokq23RWMBKXZUlVYVztTIkNsmDMOXUjbVdHSezLCxsZZEtlGTx0gf6qSgowSePQwnLIbXGgd9dZZ520XWnPPfdMNzpXQM9CV9WZA6TlAzBMnLsgsSgOJ1g/VdYSB8gJs7I8UJwfJYcs1niBCS2Daa+dE+tN7KomNcowhiQiKVGGtjZGp4aDriAxK9VYEzB//vw0c6usi2s8BZGWG2+8MTl1ZXB+kXik6BqG8OLLd03S8Ngh0YswOcfLBBWFoYVl6gIcVStNJLpGgq7oRZ65bBQHJkA30cVmL0L3Ejg4NKLCHoPbeDnuSvsNfpV9Am0gJVhhKfdINQOHl+EajZBhV5CYFibwI/ERoKGcoMOb7yUI+jsYxX30vvOd7yxynXjiielvdKRITZVh7KTPy1u2jLfYNxKXQ4/DRdesZ0JIwi3lCjCaWONtvizHVKsGnnfZ+5bMcB6bM9c++9nPLnLZmj9t2rR0aIqYclXb7nuLRlhNrTCAwLYi2TwrGjMakqprSBzWmGdehmoudQSKqas6mNo2HItzySWXpHMmqiqnfO9bbrklaeE4ikHxEimByCONDwe6hsRmpLJMO4PLEGYrn+FQNRg0Z06IhbcKK5PBNgmqBlpYnP+YY45ZaIVBzNtRBFbc0UqhL1ksaf/X93NHYVYiMvFvW3ps66apkFejebNIMZwlyCTwuZyMKG8UDWEVZMpGQ5sNBN+VBy6tTvMr5FlzzTUHvWKLv3vsKYIXghwtqzUQOF3qNljNgP+/+uqr9/3WOmRbOeZIrL+tovwd7ZHIMUFHLQZeEKRrUBA2v/vuu/PDDz883WfY13MVg5hvuummedEpeUHGvle3hmJSpHtJF0Ra+LmbbbZZfsEFF+TFxOl7VXvgOxeDmu5pfO+99w55LViwIH/44YfTe4bb3lZQaO90X+3oF9dRRx3V99fWURifvHDI8wMOOKDfvaMLuZgfcsghqW1PPPFE36tHjq6RE8AaqmrbaaedkuWNmcoq04fqcHnrxfdOz1cFlk2Oq4SOdg11iaGSEd4zWkvuWMHYcOZYYb6M1RSMrZXPCflS8aPh0AW6isRA/1k+LfO8V9AxnASd0osht16CuLaokrphyapwxk1KGTrXaBIYuo7EGsgCTZ06NVW3lXHxxRenGT5a1W2SDix7VaMeowFtZxTCYo4UPktokMEpr5gSWY6sVScx2vq+60isgayxGYvEHICATBZZoXC81bCTyaE2o1yfwXsW+mmn09Tt4PDKHoazC5Z7MqYVYiOsz3KbBskN0i/ACk+ePDlFadrhQHcdiQM8WZVcbh4ey4+l6uqrr07ZLoRuxYKaGHaQlEsifUbEL8cr9KltUyZ0AOn4I63INmOhL+1aueGGG/oZGVEOGbp2FfZ3LYktO0JNisSjYB7UG+ikqKlolshI3HiwiU6n36qcFRsJtJk0E8ctH9AilNl4dvRgYIUloySmGJiwwoyPz+HM8XFGo9hnIHQtiYE1cM6CXb7lGSymKf7Yyj0sLI+rrrpqOve3DPfCOOOMM5JHPZ6AwGLybjMmdo6EAYX4sqfNxnFZ7HvvvTc79NBDkzMXsJrSwRHrbhe6msSIp0iENRZ6ik7V4YqD5GnUVjS77LEKljSfFRDoV4Av6lHl1HYr0EYOLYtpAtu0CgyFPrb0NxtF0PeIy5mzOoY8814HyRx44IGpZridocKuydgNhOhUWToOgbCN5S9CbnQcklv+OGxDdbq/+xzvl70zmAZBx3NuSJjYee1/NzOIVYJVi7NGA3OOVcs5IkCBFXDoNt5442yrrbZKx3E1k+62GnLkjjvuuDQpYmX0/s033zytoqxwM581XCxRDGjXZw4se2b7/vvvn+5boeMCOtxttOjnZnQc2UBTu7Mn6xuWQ0fb3+aylJoY9HMr2rBbEZbXYSycWell5FWTwhigAL0qLc6mcai1fahJ7L0IbDK4316AQdGPbp7DqfPZ7XDoApUgcQyCGlsHi1i2IvzDan74wx/Opk+fnsr7hprx3mcgL7zwwnSXTzW7ZU+a82f581msPOnRzgEYC1htOG7aSjp4ROiA1Uk73V7BbcmaKTpicRVnffnLX04Ejtg94vM9dtxxx7ThlRFod/9VgsTga1r2jjjiiHR7LUQMsJo777xzdsghhyQ5MBQMqjMQOIenn3568qoDISPKj70A/ccYlB8Doj9TpkzJDj744LR5cygLjMBKAZxmRFPrv/g8iaqDDjooEZhBGJP+K/55ZVBY0bywwvlHPvKRvLDAei1dhSXJi9mfH3bYYXlB9PS6wVAMYiqsKTo/nzNnTj516tS88KQXft54uhRWFZM5Lyx0XqxIfT20eBQGIL///vvzY489Np88eXJe+Cv9Ps/YzJ8/v+1FVWV0tWPXCBbCTLfUscrO7gWWhbZlXTmBvGLhncVZFNbBZ9DBrLiIRewyIDfIi2ZDd1UD+aXNwmjbbrttssDCYMpRhwqp6RMyRFbuW9/6VnK0IzQZddMf/OAHU1jUOI3VKlYZORHQkYLz0s+f+9znkqct3QkcCh247777pjCRwRpK25kA5IXBEag3MH42OBxKf6s6QhrpHxEYy7yU/lprrZWOkPLcUP2EJgwHAp900knZj370o35+CRmy9957Z1tssUWKTLQjvbw4VI7EgLTiu8WSlvaqNZ4UtMMOOySNzDNmbZuxCLoBYX2OQWGN1RNwKKsO7dcmZa4ekU97kbcZeK0YuiQTx/r444/v+8tTq6NVTCzfmcrKTceSwAlIXEXQtAV586233jovOq6fLqORabOi0/Oi8/ve0RroZldB6p65hgN9QCvfdNNN+bRp0xbxHSZMmJDvtNNOaTPDcP/HSFEpTVwGC8CS2JfHYtqMGKEyEmHBggXJg7a0iVhYLlvRaF7ba9dwwGqTbF/4whdSWDISI0AHO/zQdiMx5jG3wH2oLIkNCmJavkgGyz5Hr7AG6e8cPeTW6XSfeKWg++KcvRr9wRDoQ+EzoUg1FmSb5/U9wirsQWIH33CkO4XKkjgQWo/TohpNIUqxwqS/yexJhdJziIzsrHdN5MHBECCwxMicOXNSkomzi8Cgr2X19thjj7TxtVm/o12oPIkBkYXVhMrURLDK4TkjsN0gXqOzSQuD0MlO72YwAGSY1LREECssUhOGgcWVzXR2MgvMOAwV2Wg7CONeQEHavJAP+RVXXJEXndtvl62rIHG+/vrr54VVyQsL3feuGmVw4jjCV155ZXKYG/vQteaaa+bnn39+U0mlsUJPWGJgWQXraWRlhOHshUa2FHrO5bVxJ9NaWjwFK5e+UZY6a9asVOUWxVFgJdtyyy2ThLDbRn2FvuuGFa2nSKxTOW+SHBw5cV+JkYhaeHQOGn0n1iy+SVp0fDnsMPQFpw1xxYAlNGQ/Qb9y4pzaI/4eFW6e6wYCQ8+QuAxEjiOgVFcJt7E0xcqTNLKKLtuSpEZpOnW045XIJroyV9lK99lT3B4JHkZBHzqJiAWWBUXgbuurniQxiEIgspoAYSLOCouDyAgt9imSEbUWUTLYLdal3dAPpBYCFxo33STSXU8jAqEfTHDSQSZOmnq0Dz0ZNRDGvYpwVO688850TFNjZq8YkHzZZZfN99xzz1TRVljtjmWdxhLaqF9kPGfMmJEX/kFeWNd+faM6jXN38803p8o1fdmt6FlLDKyJpY9sWGGFFVKoiIyIyqui/UknkxvCcGQI6yOM1KvywmpkK5ajD9Rf2+GhNtvqFNAHak/UBK+00krJAe7mFaqnSQxBZFELg0Nm8Lo5d4DISE0nc2546JZNr+9UGrVdUJXnvGPy4dRTT80uu+yy5OgGgUUgxNrtylCmqSKQ3Op29DyJAwZIZk9EApE5NAaQZQKPNDKrzDqLWiB9eOHdbIkGg0lK52qTqMM555yTKv9YYH3g7yAJ5Axl96RWE0wDV4HACUUjxhUKsuaF1c0vuuiifKONNsoLbztVvemKuAr5kU+ZMiW/8MIL8/vuuy/px27WhIuD71yQN3/wwQfzq666KvkFfIByW/kFxWRNfSER5NjVwjL3fUI1MO5IDBybxx57LL/rrrvyffbZJ584cWK/gS2sbsrwrbjiivmsWbPyO+64o6mtO90Gk++ee+5JW7CWX375vFiBUtvKbTVh99tvv/yGG25ImcwqTtZxIyfKIA3IBA6fEJxQnNho+T5rlmBaWXjOrl6vtaEy3tutKMY0hc60h+Z1NyYFPKRShBiBE2s3t8NNVKM5pmCwLV3djEru7BhN0IXI6zwLAX8lh41ns8kAOpo0bkcQ54p124AjL6cVYR2DO2/evHREFZ1fhri4XS8bbrhhuq0BZ47PUFWMexID71wyxJFYp5xySnbppZcm6yu7V4YC/PXWWy8dDILIsSG10+E45NUGKXahM4fDOGNOGSqHLmAFYXEdNMOBs8dOkqfq4cSaxH3QDcigiP6EE05IZYiyWSIYZSACT/6jH/1o2iWMFMjMKnciguE7CwsKEdo86zip22+/vd9K4ruJyDggZZdddkl1EKxvJwvZRxVIXON/4Ng89NBD6YY0u+22W/LedVP54hxxkpR8Hnnkken1nKiCUH2fMjYQRRBNKHRvXqwOKctWWNVFvu/SSy+dr7vuuiki4+Y3IjRVdOAWh9oSDwDWjQWmJe2q5hxdc801KdNVhliyuLP4qjJFyzOrLMPVTpAIrK+TQZ3/4Fgq35UkKkPSRu2DxIU9cLJvNgZ0atVoF2oSLwaWYzqTR8/hmz9/fnL+7ByJtDUgA13p/DE6mWbmBEqUcP5GC4YJeWXdfAcH+V133XWpfFIkwsQD34fG9V0QmP7lxCF0r9ZP1yRuAojDaUJiKVt7z2LvXhkOJUEaEQxWj4VGnpFEMpAzHE/1Hf6vSYW85ZAgyLDJSkoXizzQ7GpGRnMydSNqEjcJlpklVF9x5plnprsDiWaoVxamKyNSuNOmTUsnbNpF4jlhrGbJ7P+5SBhOG2fNEapWhIGcTZPFjha1v5xOsgF5qx55aAY1iVuArmIZWUWxZKRyKqQoRhmxpCORGxDa1u7YVGSWNBkKyCvea4KocxApiZu5sMqNQyaOveuuu6akhQiEwnXfoZd072CoSdwidFfoZeR1VrJiGrsiyhVhAWEszp7MoN3BzlEmO5C5McFAf9O3ykVtlad5WXulknH+b4D1RV7JivXXXz/dYkvmUShtPFjfMmoSjwAIK66MaJIMNCunS0SDji4DuZDMFh83YgndHMcHeL0J4XNEHRCY5m38HNZdpCHuC0e2+BxyZbyRN1CTeITQfSQGXez2CZwu4TinESEzCcByl8EqC8eJGkg6sKoIy6Jz2BrlCR3Nonuf5IqJwGlTLsmae/94kQ4DoSbxKCLIjIT2q7kNgKiGncMiGY1kJiuQkjVmeRsdtiCvcB2nTabNjWEiFo28NWoSjzrCMiMtHcsyIzML25iMCAfQ40AOG90s7uwORGuvvXb6HeHjPTWeQk3iNoHVdQmRyaaJLSOywpyBHMBA2WFDXPqZ5GC1Webhxpt7GTWJ2wzdGw6gWC/ZMJADWHbYZPwkLDhs4r8sb03exaMm8RhBN5cdQAXriCx54nnnKDthUsavdthaQ03iDgBpXeLBTp8UwRBDtsO6dthaR03iDoJmRmZDEFa3trytoyZxjcqj9hZqVB41iWtUHE/WJK5RceT/rUlco+J4/F81iWtUHI/XlrhG1fFkrYlrVB3qSfp+rFGjmnj6M7L/B8qiVaeuneUnAAAAAElFTkSuQmCC;" parent="1yb4j-lFQ4wOXY7LEsBq-1" vertex="1">
          <mxGeometry x="480" y="310" width="70" height="70" as="geometry" />
        </mxCell>
        <mxCell id="iQo0lqwMeCaO3AEn_KP5-0" value="&lt;font face=&quot;IBM Plex Sans&quot;&gt;OpenShift or Kubernetes cluster&lt;/font&gt;" style="text;html=1;strokeColor=none;fillColor=none;align=center;verticalAlign=middle;whiteSpace=wrap;rounded=0;fontSize=14;" parent="1yb4j-lFQ4wOXY7LEsBq-1" vertex="1">
          <mxGeometry x="398.16999999999996" y="135" width="240" height="30" as="geometry" />
        </mxCell>
        <mxCell id="iQo0lqwMeCaO3AEn_KP5-3" value="&lt;font face=&quot;IBM Plex Sans&quot;&gt;DSB Shield&lt;/font&gt;" style="text;html=1;strokeColor=none;fillColor=none;align=center;verticalAlign=middle;whiteSpace=wrap;rounded=0;fontSize=14;" parent="1yb4j-lFQ4wOXY7LEsBq-1" vertex="1">
          <mxGeometry x="450" y="380" width="140" height="30" as="geometry" />
        </mxCell>
        <mxCell id="iQo0lqwMeCaO3AEn_KP5-7" value="" style="rounded=0;orthogonalLoop=1;jettySize=auto;html=1;exitX=1;exitY=0.5;exitDx=0;exitDy=0;strokeWidth=2;" parent="1yb4j-lFQ4wOXY7LEsBq-1" source="1yb4j-lFQ4wOXY7LEsBq-37" target="1yb4j-lFQ4wOXY7LEsBq-23" edge="1">
          <mxGeometry relative="1" as="geometry">
            <mxPoint x="280" y="345" as="sourcePoint" />
            <mxPoint x="355" y="327" as="targetPoint" />
          </mxGeometry>
        </mxCell>
        <mxCell id="iQo0lqwMeCaO3AEn_KP5-8" value="&lt;font face=&quot;IBM Plex Sans&quot;&gt;Data path&lt;/font&gt;" style="text;html=1;strokeColor=none;fillColor=none;align=center;verticalAlign=middle;whiteSpace=wrap;rounded=0;fontSize=14;" parent="1yb4j-lFQ4wOXY7LEsBq-1" vertex="1">
          <mxGeometry x="355" y="312" width="90" height="30" as="geometry" />
        </mxCell>
        <mxCell id="iQo0lqwMeCaO3AEn_KP5-9" value="&lt;font face=&quot;IBM Plex Sans&quot;&gt;Data path&lt;/font&gt;" style="text;html=1;strokeColor=none;fillColor=none;align=center;verticalAlign=middle;whiteSpace=wrap;rounded=0;fontSize=14;" parent="1yb4j-lFQ4wOXY7LEsBq-1" vertex="1">
          <mxGeometry x="580" y="316" width="90" height="30" as="geometry" />
        </mxCell>
        <mxCell id="VGY0FmFMagoS7xLTxuEI-0" value="&lt;font face=&quot;IBM Plex Sans&quot;&gt;Control path&lt;/font&gt;" style="text;html=1;strokeColor=none;fillColor=none;align=center;verticalAlign=middle;whiteSpace=wrap;rounded=0;fontSize=14;" parent="1yb4j-lFQ4wOXY7LEsBq-1" vertex="1">
          <mxGeometry x="512" y="268" width="90" height="30" as="geometry" />
        </mxCell>
        <object label="text" id="1yb4j-lFQ4wOXY7LEsBq-42">
          <mxCell parent="1yb4j-lFQ4wOXY7LEsBq-0" />
        </object>
        <mxCell id="1yb4j-lFQ4wOXY7LEsBq-43" value="&lt;font face=&quot;IBM Plex Sans&quot;&gt;Application&lt;/font&gt;" style="text;html=1;strokeColor=none;fillColor=none;align=center;verticalAlign=middle;whiteSpace=wrap;rounded=0;fontSize=14;" parent="1yb4j-lFQ4wOXY7LEsBq-42" vertex="1">
          <mxGeometry x="200" y="395" width="90" height="30" as="geometry" />
        </mxCell>
        <mxCell id="1yb4j-lFQ4wOXY7LEsBq-45" value="&lt;font face=&quot;IBM Plex Sans&quot;&gt;DSB Manager&lt;/font&gt;" style="text;html=1;strokeColor=none;fillColor=none;align=center;verticalAlign=middle;whiteSpace=wrap;rounded=0;fontSize=14;" parent="1yb4j-lFQ4wOXY7LEsBq-42" vertex="1">
          <mxGeometry x="450" y="163" width="140" height="30" as="geometry" />
        </mxCell>
        <mxCell id="1yb4j-lFQ4wOXY7LEsBq-49" value="&lt;font face=&quot;IBM Plex Sans&quot;&gt;Database&lt;/font&gt;" style="text;html=1;strokeColor=none;fillColor=none;align=center;verticalAlign=middle;whiteSpace=wrap;rounded=0;fontSize=14;" parent="1yb4j-lFQ4wOXY7LEsBq-42" vertex="1">
          <mxGeometry x="740" y="395" width="120" height="30" as="geometry" />
        </mxCell>
      </root>
    </mxGraphModel>
  </diagram>
</mxfile>
